<svg width="360" height="17" viewBox="0 0 360 17" fill="none" xmlns="http://www.w3.org/2000/svg">
<path d="M5.94 1.38C4.92 1.38 4.015 1.605 3.225 2.055C2.445 2.505 1.835 3.135 1.395 3.945C0.955 4.745 0.735 5.66 0.735 6.69C0.735 7.72 0.955 8.64 1.395 9.45C1.835 10.26 2.445 10.89 3.225 11.34C4.015 11.79 4.92 12.015 5.94 12.015C6.96 12.015 7.86 11.79 8.64 11.34C9.43 10.89 10.04 10.26 10.47 9.45C10.91 8.64 11.13 7.72 11.13 6.69C11.13 5.66 10.91 4.745 10.47 3.945C10.04 3.135 9.43 2.505 8.64 2.055C7.86 1.605 6.96 1.38 5.94 1.38ZM5.94 1.89C6.87 1.89 7.685 2.095 8.385 2.505C9.085 2.905 9.625 3.47 10.005 4.2C10.385 4.93 10.575 5.76 10.575 6.69C10.575 7.62 10.385 8.45 10.005 9.18C9.625 9.9 9.085 10.465 8.385 10.875C7.685 11.285 6.87 11.49 5.94 11.49C5.01 11.49 4.195 11.285 3.495 10.875C2.795 10.465 2.255 9.9 1.875 9.18C1.495 8.45 1.305 7.62 1.305 6.69C1.305 5.76 1.495 4.93 1.875 4.2C2.255 3.47 2.795 2.905 3.495 2.505C4.195 2.095 5.01 1.89 5.94 1.89ZM6 3.21C6.74 3.21 7.395 3.43 7.965 3.87C8.535 4.3 8.91 4.9 9.09 5.67H7.905C7.755 5.2 7.5 4.835 7.14 4.575C6.79 4.315 6.39 4.185 5.94 4.185C5.35 4.185 4.85 4.405 4.44 4.845C4.03 5.275 3.825 5.895 3.825 6.705C3.825 7.235 3.92 7.69 4.11 8.07C4.31 8.45 4.57 8.735 4.89 8.925C5.21 9.115 5.56 9.21 5.94 9.21C6.39 9.21 6.79 9.08 7.14 8.82C7.5 8.55 7.755 8.18 7.905 7.71H9.09C8.92 8.48 8.545 9.085 7.965 9.525C7.395 9.955 6.74 10.17 6 10.17C5.39 10.17 4.835 10.035 4.335 9.765C3.835 9.495 3.44 9.1 3.15 8.58C2.86 8.05 2.715 7.42 2.715 6.69C2.715 5.97 2.86 5.35 3.15 4.83C3.44 4.3 3.835 3.9 4.335 3.63C4.835 3.35 5.39 3.21 6 3.21ZM16.2159 10.95C17.9159 9.81 19.2759 8.68 20.2959 7.56C21.3159 6.43 21.8259 5.38 21.8259 4.41C21.8259 3.81 21.6709 3.33 21.3609 2.97C21.0609 2.6 20.5709 2.415 19.8909 2.415C19.1909 2.415 18.6609 2.64 18.3009 3.09C17.9409 3.53 17.7409 4.14 17.7009 4.92H16.3509C16.4209 3.74 16.7859 2.835 17.4459 2.205C18.1059 1.565 18.9559 1.245 19.9959 1.245C20.9859 1.245 21.7709 1.51 22.3509 2.04C22.9309 2.57 23.2209 3.32 23.2209 4.29C23.2209 5.09 22.9609 5.905 22.4409 6.735C21.9309 7.555 21.2859 8.32 20.5059 9.03C19.7359 9.73 18.9409 10.325 18.1209 10.815H23.4909V11.94H16.2159V10.95ZM24.9517 6.645C24.9517 8.345 25.2317 9.67 25.7917 10.62C26.3517 11.57 27.3217 12.045 28.7017 12.045C30.0817 12.045 31.0517 11.57 31.6117 10.62C32.1817 9.67 32.4667 8.345 32.4667 6.645C32.4667 4.965 32.1817 3.65 31.6117 2.7C31.0517 1.75 30.0817 1.275 28.7017 1.275C27.3217 1.275 26.3517 1.75 25.7917 2.7C25.2317 3.64 24.9517 4.955 24.9517 6.645ZM31.1167 6.645C31.1167 7.515 31.0517 8.245 30.9217 8.835C30.8017 9.415 30.5667 9.88 30.2167 10.23C29.8667 10.58 29.3617 10.755 28.7017 10.755C28.0517 10.755 27.5517 10.58 27.2017 10.23C26.8517 9.88 26.6117 9.415 26.4817 8.835C26.3617 8.245 26.3017 7.515 26.3017 6.645C26.3017 5.785 26.3617 5.065 26.4817 4.485C26.6117 3.905 26.8517 3.445 27.2017 3.105C27.5517 2.755 28.0517 2.58 28.7017 2.58C29.3617 2.58 29.8667 2.755 30.2167 3.105C30.5667 3.445 30.8017 3.905 30.9217 4.485C31.0517 5.065 31.1167 5.785 31.1167 6.645ZM33.9405 10.95C35.6405 9.81 37.0005 8.68 38.0205 7.56C39.0405 6.43 39.5505 5.38 39.5505 4.41C39.5505 3.81 39.3955 3.33 39.0855 2.97C38.7855 2.6 38.2955 2.415 37.6155 2.415C36.9155 2.415 36.3855 2.64 36.0255 3.09C35.6655 3.53 35.4655 4.14 35.4255 4.92H34.0755C34.1455 3.74 34.5105 2.835 35.1705 2.205C35.8305 1.565 36.6805 1.245 37.7205 1.245C38.7105 1.245 39.4955 1.51 40.0755 2.04C40.6555 2.57 40.9455 3.32 40.9455 4.29C40.9455 5.09 40.6855 5.905 40.1655 6.735C39.6555 7.555 39.0105 8.32 38.2305 9.03C37.4605 9.73 36.6655 10.325 35.8455 10.815H41.2155V11.94H33.9405V10.95ZM42.6763 6.645C42.6763 8.345 42.9563 9.67 43.5163 10.62C44.0763 11.57 45.0463 12.045 46.4263 12.045C47.8063 12.045 48.7763 11.57 49.3363 10.62C49.9063 9.67 50.1913 8.345 50.1913 6.645C50.1913 4.965 49.9063 3.65 49.3363 2.7C48.7763 1.75 47.8063 1.275 46.4263 1.275C45.0463 1.275 44.0763 1.75 43.5163 2.7C42.9563 3.64 42.6763 4.955 42.6763 6.645ZM48.8413 6.645C48.8413 7.515 48.7763 8.245 48.6463 8.835C48.5263 9.415 48.2913 9.88 47.9413 10.23C47.5913 10.58 47.0863 10.755 46.4263 10.755C45.7763 10.755 45.2763 10.58 44.9263 10.23C44.5763 9.88 44.3363 9.415 44.2063 8.835C44.0863 8.245 44.0263 7.515 44.0263 6.645C44.0263 5.785 44.0863 5.065 44.2063 4.485C44.3363 3.905 44.5763 3.445 44.9263 3.105C45.2763 2.755 45.7763 2.58 46.4263 2.58C47.0863 2.58 47.5913 2.755 47.9413 3.105C48.2913 3.445 48.5263 3.905 48.6463 4.485C48.7763 5.065 48.8413 5.785 48.8413 6.645ZM63.3512 1.425L59.8862 7.995V12H58.5062V7.995L55.0262 1.425H56.6162L59.2112 6.54L61.7912 1.425H63.3512ZM72.3028 7.425C72.3028 7.715 72.2828 7.965 72.2428 8.175H65.6578C65.6878 9.115 65.9528 9.82 66.4528 10.29C66.9628 10.76 67.5828 10.995 68.3128 10.995C68.9728 10.995 69.5228 10.83 69.9628 10.5C70.4128 10.16 70.6878 9.71 70.7878 9.15H72.2428C72.1428 9.72 71.9178 10.23 71.5678 10.68C71.2278 11.13 70.7828 11.48 70.2328 11.73C69.6828 11.98 69.0628 12.105 68.3728 12.105C67.5828 12.105 66.8828 11.935 66.2728 11.595C65.6628 11.255 65.1828 10.77 64.8328 10.14C64.4928 9.5 64.3228 8.75 64.3228 7.89C64.3228 7.03 64.4928 6.28 64.8328 5.64C65.1828 5 65.6628 4.51 66.2728 4.17C66.8828 3.83 67.5828 3.66 68.3728 3.66C69.1728 3.66 69.8678 3.83 70.4578 4.17C71.0578 4.51 71.5128 4.965 71.8228 5.535C72.1428 6.105 72.3028 6.735 72.3028 7.425ZM70.9228 7.515C70.9528 6.905 70.8528 6.395 70.6228 5.985C70.3928 5.575 70.0778 5.27 69.6778 5.07C69.2778 4.87 68.8428 4.77 68.3728 4.77C67.6228 4.77 66.9928 5.005 66.4828 5.475C65.9728 5.935 65.6978 6.615 65.6578 7.515H70.9228ZM76.6682 3.66C77.5982 3.66 78.3432 3.905 78.9032 4.395C79.4732 4.875 79.8182 5.525 79.9382 6.345H78.6332C78.5732 5.855 78.3682 5.455 78.0182 5.145C77.6782 4.825 77.2182 4.665 76.6382 4.665C76.1482 4.665 75.7632 4.785 75.4832 5.025C75.2132 5.255 75.0782 5.57 75.0782 5.97C75.0782 6.27 75.1682 6.515 75.3482 6.705C75.5382 6.885 75.7682 7.025 76.0382 7.125C76.3182 7.215 76.6982 7.315 77.1782 7.425C77.7882 7.565 78.2782 7.71 78.6482 7.86C79.0282 8 79.3482 8.23 79.6082 8.55C79.8782 8.87 80.0132 9.3 80.0132 9.84C80.0132 10.51 79.7582 11.055 79.2482 11.475C78.7482 11.895 78.0782 12.105 77.2382 12.105C76.2582 12.105 75.4582 11.87 74.8382 11.4C74.2182 10.93 73.8532 10.275 73.7432 9.435H75.0632C75.1132 9.935 75.3282 10.34 75.7082 10.65C76.0982 10.96 76.6082 11.115 77.2382 11.115C77.7082 11.115 78.0732 10.995 78.3332 10.755C78.6032 10.515 78.7382 10.2 78.7382 9.81C78.7382 9.49 78.6432 9.235 78.4532 9.045C78.2632 8.855 78.0282 8.71 77.7482 8.61C77.4682 8.51 77.0832 8.405 76.5932 8.295C75.9832 8.155 75.4932 8.015 75.1232 7.875C74.7632 7.735 74.4532 7.515 74.1932 7.215C73.9432 6.905 73.8182 6.49 73.8182 5.97C73.8182 5.28 74.0732 4.725 74.5832 4.305C75.0932 3.875 75.7882 3.66 76.6682 3.66ZM83.2022 7.74V12H81.8372V1.425H85.1972C86.4072 1.425 87.3122 1.71 87.9122 2.28C88.5122 2.84 88.8122 3.61 88.8122 4.59C88.8122 5.58 88.5022 6.355 87.8822 6.915C87.2622 7.465 86.3672 7.74 85.1972 7.74H83.2022ZM85.0772 6.6C85.9072 6.6 86.5022 6.425 86.8622 6.075C87.2322 5.725 87.4172 5.23 87.4172 4.59C87.4172 3.93 87.2322 3.43 86.8622 3.09C86.5022 2.74 85.9072 2.565 85.0772 2.565H83.2022V6.6H85.0772ZM97.9815 7.425C97.9815 7.715 97.9615 7.965 97.9215 8.175H91.3365C91.3665 9.115 91.6315 9.82 92.1315 10.29C92.6415 10.76 93.2615 10.995 93.9915 10.995C94.6515 10.995 95.2015 10.83 95.6415 10.5C96.0915 10.16 96.3665 9.71 96.4665 9.15H97.9215C97.8215 9.72 97.5965 10.23 97.2465 10.68C96.9065 11.13 96.4615 11.48 95.9115 11.73C95.3615 11.98 94.7415 12.105 94.0515 12.105C93.2615 12.105 92.5615 11.935 91.9515 11.595C91.3415 11.255 90.8615 10.77 90.5115 10.14C90.1715 9.5 90.0015 8.75 90.0015 7.89C90.0015 7.03 90.1715 6.28 90.5115 5.64C90.8615 5 91.3415 4.51 91.9515 4.17C92.5615 3.83 93.2615 3.66 94.0515 3.66C94.8515 3.66 95.5465 3.83 96.1365 4.17C96.7365 4.51 97.1915 4.965 97.5015 5.535C97.8215 6.105 97.9815 6.735 97.9815 7.425ZM96.6015 7.515C96.6315 6.905 96.5315 6.395 96.3015 5.985C96.0715 5.575 95.7565 5.27 95.3565 5.07C94.9565 4.87 94.5215 4.77 94.0515 4.77C93.3015 4.77 92.6715 5.005 92.1615 5.475C91.6515 5.935 91.3765 6.615 91.3365 7.515H96.6015ZM101.132 5.43C101.402 4.86 101.797 4.42 102.317 4.11C102.837 3.79 103.457 3.63 104.177 3.63V5.115H103.757C102.987 5.115 102.357 5.315 101.867 5.715C101.377 6.105 101.132 6.755 101.132 7.665V12H99.7669V3.765H101.132V5.43ZM108.104 3.66C109.034 3.66 109.779 3.905 110.339 4.395C110.909 4.875 111.254 5.525 111.374 6.345H110.069C110.009 5.855 109.804 5.455 109.454 5.145C109.114 4.825 108.654 4.665 108.074 4.665C107.584 4.665 107.199 4.785 106.919 5.025C106.649 5.255 106.514 5.57 106.514 5.97C106.514 6.27 106.604 6.515 106.784 6.705C106.974 6.885 107.204 7.025 107.474 7.125C107.754 7.215 108.134 7.315 108.614 7.425C109.224 7.565 109.714 7.71 110.084 7.86C110.464 8 110.784 8.23 111.044 8.55C111.314 8.87 111.449 9.3 111.449 9.84C111.449 10.51 111.194 11.055 110.684 11.475C110.184 11.895 109.514 12.105 108.674 12.105C107.694 12.105 106.894 11.87 106.274 11.4C105.654 10.93 105.289 10.275 105.179 9.435H106.499C106.549 9.935 106.764 10.34 107.144 10.65C107.534 10.96 108.044 11.115 108.674 11.115C109.144 11.115 109.509 10.995 109.769 10.755C110.039 10.515 110.174 10.2 110.174 9.81C110.174 9.49 110.079 9.235 109.889 9.045C109.699 8.855 109.464 8.71 109.184 8.61C108.904 8.51 108.519 8.405 108.029 8.295C107.419 8.155 106.929 8.015 106.559 7.875C106.199 7.735 105.889 7.515 105.629 7.215C105.379 6.905 105.254 6.49 105.254 5.97C105.254 5.28 105.509 4.725 106.019 4.305C106.529 3.875 107.224 3.66 108.104 3.66ZM117.008 3.66C117.798 3.66 118.503 3.83 119.123 4.17C119.753 4.51 120.243 5 120.593 5.64C120.953 6.28 121.133 7.03 121.133 7.89C121.133 8.75 120.953 9.5 120.593 10.14C120.243 10.77 119.753 11.255 119.123 11.595C118.503 11.935 117.798 12.105 117.008 12.105C116.218 12.105 115.508 11.935 114.878 11.595C114.258 11.255 113.768 10.77 113.408 10.14C113.048 9.5 112.868 8.75 112.868 7.89C112.868 7.03 113.048 6.28 113.408 5.64C113.768 5 114.258 4.51 114.878 4.17C115.508 3.83 116.218 3.66 117.008 3.66ZM117.008 4.86C116.518 4.86 116.063 4.97 115.643 5.19C115.233 5.41 114.898 5.75 114.638 6.21C114.388 6.66 114.263 7.22 114.263 7.89C114.263 8.55 114.388 9.11 114.638 9.57C114.898 10.02 115.233 10.355 115.643 10.575C116.063 10.795 116.518 10.905 117.008 10.905C117.498 10.905 117.948 10.795 118.358 10.575C118.778 10.355 119.113 10.02 119.363 9.57C119.623 9.11 119.753 8.55 119.753 7.89C119.753 7.22 119.623 6.66 119.363 6.21C119.113 5.75 118.778 5.41 118.358 5.19C117.948 4.97 117.498 4.86 117.008 4.86ZM127.246 3.63C128.206 3.63 128.981 3.94 129.571 4.56C130.161 5.17 130.456 6.055 130.456 7.215V12H129.091V7.335C129.091 6.515 128.881 5.885 128.461 5.445C128.041 5.005 127.471 4.785 126.751 4.785C126.001 4.785 125.401 5.03 124.951 5.52C124.501 6 124.276 6.705 124.276 7.635V12H122.911V3.765H124.276V5.715C124.486 5.045 124.856 4.53 125.386 4.17C125.926 3.81 126.546 3.63 127.246 3.63ZM135.925 3.66C136.725 3.66 137.4 3.86 137.95 4.26C138.51 4.66 138.9 5.195 139.12 5.865V3.765H140.485V12H139.12V9.9C138.9 10.57 138.51 11.105 137.95 11.505C137.4 11.905 136.725 12.105 135.925 12.105C135.195 12.105 134.545 11.935 133.975 11.595C133.405 11.255 132.955 10.77 132.625 10.14C132.305 9.5 132.145 8.75 132.145 7.89C132.145 7.03 132.305 6.28 132.625 5.64C132.955 5 133.405 4.51 133.975 4.17C134.545 3.83 135.195 3.66 135.925 3.66ZM136.315 4.875C135.475 4.875 134.8 5.145 134.29 5.685C133.79 6.215 133.54 6.95 133.54 7.89C133.54 8.83 133.79 9.57 134.29 10.11C134.8 10.64 135.475 10.905 136.315 10.905C136.855 10.905 137.335 10.78 137.755 10.53C138.185 10.28 138.52 9.93 138.76 9.48C139 9.02 139.12 8.49 139.12 7.89C139.12 7.29 139 6.76 138.76 6.3C138.52 5.84 138.185 5.49 137.755 5.25C137.335 5 136.855 4.875 136.315 4.875ZM144.023 0.9V12H142.658V0.9H144.023ZM147.582 10.935H151.332V12H146.217V1.425H147.582V10.935ZM156.456 3.66C157.246 3.66 157.951 3.83 158.571 4.17C159.201 4.51 159.691 5 160.041 5.64C160.401 6.28 160.581 7.03 160.581 7.89C160.581 8.75 160.401 9.5 160.041 10.14C159.691 10.77 159.201 11.255 158.571 11.595C157.951 11.935 157.246 12.105 156.456 12.105C155.666 12.105 154.956 11.935 154.326 11.595C153.706 11.255 153.216 10.77 152.856 10.14C152.496 9.5 152.316 8.75 152.316 7.89C152.316 7.03 152.496 6.28 152.856 5.64C153.216 5 153.706 4.51 154.326 4.17C154.956 3.83 155.666 3.66 156.456 3.66ZM156.456 4.86C155.966 4.86 155.511 4.97 155.091 5.19C154.681 5.41 154.346 5.75 154.086 6.21C153.836 6.66 153.711 7.22 153.711 7.89C153.711 8.55 153.836 9.11 154.086 9.57C154.346 10.02 154.681 10.355 155.091 10.575C155.511 10.795 155.966 10.905 156.456 10.905C156.946 10.905 157.396 10.795 157.806 10.575C158.226 10.355 158.561 10.02 158.811 9.57C159.071 9.11 159.201 8.55 159.201 7.89C159.201 7.22 159.071 6.66 158.811 6.21C158.561 5.75 158.226 5.41 157.806 5.19C157.396 4.97 156.946 4.86 156.456 4.86ZM165.735 3.66C166.535 3.66 167.21 3.86 167.76 4.26C168.32 4.66 168.71 5.195 168.93 5.865V3.765H170.295V12H168.93V9.9C168.71 10.57 168.32 11.105 167.76 11.505C167.21 11.905 166.535 12.105 165.735 12.105C165.005 12.105 164.355 11.935 163.785 11.595C163.215 11.255 162.765 10.77 162.435 10.14C162.115 9.5 161.955 8.75 161.955 7.89C161.955 7.03 162.115 6.28 162.435 5.64C162.765 5 163.215 4.51 163.785 4.17C164.355 3.83 165.005 3.66 165.735 3.66ZM166.125 4.875C165.285 4.875 164.61 5.145 164.1 5.685C163.6 6.215 163.35 6.95 163.35 7.89C163.35 8.83 163.6 9.57 164.1 10.11C164.61 10.64 165.285 10.905 166.125 10.905C166.665 10.905 167.145 10.78 167.565 10.53C167.995 10.28 168.33 9.93 168.57 9.48C168.81 9.02 168.93 8.49 168.93 7.89C168.93 7.29 168.81 6.76 168.57 6.3C168.33 5.84 167.995 5.49 167.565 5.25C167.145 5 166.665 4.875 166.125 4.875ZM176.802 3.63C177.762 3.63 178.537 3.94 179.127 4.56C179.717 5.17 180.012 6.055 180.012 7.215V12H178.647V7.335C178.647 6.515 178.437 5.885 178.017 5.445C177.597 5.005 177.027 4.785 176.307 4.785C175.557 4.785 174.957 5.03 174.507 5.52C174.057 6 173.832 6.705 173.832 7.635V12H172.467V3.765H173.832V5.715C174.042 5.045 174.412 4.53 174.942 4.17C175.482 3.81 176.102 3.63 176.802 3.63ZM183.111 10.395V12H181.461V10.395H183.111ZM188.314 3.66C189.364 3.66 190.234 3.94 190.924 4.5C191.614 5.06 192.039 5.81 192.199 6.75H190.759C190.659 6.16 190.384 5.7 189.934 5.37C189.494 5.03 188.944 4.86 188.284 4.86C187.804 4.86 187.364 4.97 186.964 5.19C186.574 5.41 186.259 5.75 186.019 6.21C185.779 6.66 185.659 7.22 185.659 7.89C185.659 8.56 185.779 9.125 186.019 9.585C186.259 10.035 186.574 10.37 186.964 10.59C187.364 10.81 187.804 10.92 188.284 10.92C188.944 10.92 189.494 10.75 189.934 10.41C190.384 10.07 190.659 9.605 190.759 9.015H192.199C192.039 9.965 191.614 10.72 190.924 11.28C190.234 11.83 189.364 12.105 188.314 12.105C187.524 12.105 186.824 11.935 186.214 11.595C185.604 11.255 185.124 10.77 184.774 10.14C184.434 9.5 184.264 8.75 184.264 7.89C184.264 7.03 184.434 6.28 184.774 5.64C185.124 5 185.604 4.51 186.214 4.17C186.824 3.83 187.524 3.66 188.314 3.66ZM197.721 3.66C198.511 3.66 199.216 3.83 199.836 4.17C200.466 4.51 200.956 5 201.306 5.64C201.666 6.28 201.846 7.03 201.846 7.89C201.846 8.75 201.666 9.5 201.306 10.14C200.956 10.77 200.466 11.255 199.836 11.595C199.216 11.935 198.511 12.105 197.721 12.105C196.931 12.105 196.221 11.935 195.591 11.595C194.971 11.255 194.481 10.77 194.121 10.14C193.761 9.5 193.581 8.75 193.581 7.89C193.581 7.03 193.761 6.28 194.121 5.64C194.481 5 194.971 4.51 195.591 4.17C196.221 3.83 196.931 3.66 197.721 3.66ZM197.721 4.86C197.231 4.86 196.776 4.97 196.356 5.19C195.946 5.41 195.611 5.75 195.351 6.21C195.101 6.66 194.976 7.22 194.976 7.89C194.976 8.55 195.101 9.11 195.351 9.57C195.611 10.02 195.946 10.355 196.356 10.575C196.776 10.795 197.231 10.905 197.721 10.905C198.211 10.905 198.661 10.795 199.071 10.575C199.491 10.355 199.826 10.02 200.076 9.57C200.336 9.11 200.466 8.55 200.466 7.89C200.466 7.22 200.336 6.66 200.076 6.21C199.826 5.75 199.491 5.41 199.071 5.19C198.661 4.97 198.211 4.86 197.721 4.86ZM213.749 3.63C214.709 3.63 215.479 3.94 216.059 4.56C216.649 5.17 216.944 6.055 216.944 7.215V12H215.579V7.335C215.579 6.525 215.379 5.905 214.979 5.475C214.589 5.045 214.049 4.83 213.359 4.83C212.639 4.83 212.059 5.07 211.619 5.55C211.189 6.02 210.974 6.715 210.974 7.635V12H209.609V7.335C209.609 6.525 209.409 5.905 209.009 5.475C208.609 5.045 208.069 4.83 207.389 4.83C206.659 4.83 206.074 5.07 205.634 5.55C205.204 6.02 204.989 6.715 204.989 7.635V12H203.624V3.765H204.989V5.64C205.189 4.99 205.544 4.495 206.054 4.155C206.574 3.805 207.169 3.63 207.839 3.63C208.539 3.63 209.144 3.81 209.654 4.17C210.174 4.52 210.544 5.04 210.764 5.73C210.994 5.06 211.379 4.545 211.919 4.185C212.459 3.815 213.069 3.63 213.749 3.63ZM220.069 10.395V12H218.419V10.395H220.069ZM231.528 9.555H226.878L225.993 12H224.523L228.438 1.62H229.983L233.883 12H232.413L231.528 9.555ZM231.138 8.49L229.203 3.15L227.268 8.49H231.138ZM236.63 0.9V12H235.265V0.9H236.63ZM240.189 0.9V12H238.824V0.9H240.189ZM247.455 5.43C247.725 4.86 248.12 4.42 248.64 4.11C249.16 3.79 249.78 3.63 250.5 3.63V5.115H250.08C249.31 5.115 248.68 5.315 248.19 5.715C247.7 6.105 247.455 6.755 247.455 7.665V12H246.09V3.765H247.455V5.43ZM251.607 1.35C251.607 1.1 251.692 0.9 251.862 0.749999C252.032 0.589999 252.257 0.51 252.537 0.51C252.817 0.51 253.042 0.589999 253.212 0.749999C253.382 0.9 253.467 1.1 253.467 1.35C253.467 1.6 253.382 1.805 253.212 1.965C253.042 2.115 252.817 2.19 252.537 2.19C252.257 2.19 252.032 2.115 251.862 1.965C251.692 1.805 251.607 1.6 251.607 1.35ZM253.212 3.765V12H251.847V3.765H253.212ZM258.782 3.66C259.582 3.66 260.257 3.86 260.807 4.26C261.367 4.66 261.757 5.195 261.977 5.865V3.765H263.342V12.135C263.342 12.895 263.182 13.57 262.862 14.16C262.542 14.75 262.092 15.21 261.512 15.54C260.932 15.87 260.257 16.035 259.487 16.035C258.377 16.035 257.472 15.765 256.772 15.225C256.072 14.695 255.627 13.975 255.437 13.065H256.787C256.947 13.615 257.247 14.045 257.687 14.355C258.137 14.675 258.712 14.835 259.412 14.835C260.152 14.835 260.762 14.595 261.242 14.115C261.732 13.645 261.977 12.985 261.977 12.135V9.9C261.757 10.57 261.367 11.105 260.807 11.505C260.257 11.905 259.582 12.105 258.782 12.105C258.052 12.105 257.402 11.935 256.832 11.595C256.262 11.255 255.812 10.77 255.482 10.14C255.162 9.5 255.002 8.75 255.002 7.89C255.002 7.03 255.162 6.28 255.482 5.64C255.812 5 256.262 4.51 256.832 4.17C257.402 3.83 258.052 3.66 258.782 3.66ZM259.172 4.875C258.332 4.875 257.657 5.145 257.147 5.685C256.647 6.215 256.397 6.95 256.397 7.89C256.397 8.83 256.647 9.57 257.147 10.11C257.657 10.64 258.332 10.905 259.172 10.905C259.712 10.905 260.192 10.78 260.612 10.53C261.042 10.28 261.377 9.93 261.617 9.48C261.857 9.02 261.977 8.49 261.977 7.89C261.977 7.29 261.857 6.76 261.617 6.3C261.377 5.84 261.042 5.49 260.612 5.25C260.192 5 259.712 4.875 259.172 4.875ZM269.849 3.63C270.809 3.63 271.584 3.94 272.174 4.56C272.764 5.17 273.059 6.055 273.059 7.215V12H271.694V7.335C271.694 6.515 271.484 5.885 271.064 5.445C270.644 5.005 270.074 4.785 269.354 4.785C268.604 4.785 268.004 5.03 267.554 5.52C267.104 6 266.879 6.705 266.879 7.635V12H265.514V0.9H266.879V5.715C267.089 5.045 267.459 4.53 267.989 4.17C268.529 3.81 269.149 3.63 269.849 3.63ZM279.083 10.8V12H278.063C277.223 12 276.593 11.8 276.173 11.4C275.763 11 275.558 10.33 275.558 9.39V4.95H274.328V3.765H275.558V1.71H276.938V3.765H279.068V4.95H276.938V9.42C276.938 9.95 277.033 10.315 277.223 10.515C277.423 10.705 277.763 10.8 278.243 10.8H279.083ZM283.328 3.66C284.258 3.66 285.003 3.905 285.563 4.395C286.133 4.875 286.478 5.525 286.598 6.345H285.293C285.233 5.855 285.028 5.455 284.678 5.145C284.338 4.825 283.878 4.665 283.298 4.665C282.808 4.665 282.423 4.785 282.143 5.025C281.873 5.255 281.738 5.57 281.738 5.97C281.738 6.27 281.828 6.515 282.008 6.705C282.198 6.885 282.428 7.025 282.698 7.125C282.978 7.215 283.358 7.315 283.838 7.425C284.448 7.565 284.938 7.71 285.308 7.86C285.688 8 286.008 8.23 286.268 8.55C286.538 8.87 286.673 9.3 286.673 9.84C286.673 10.51 286.418 11.055 285.908 11.475C285.408 11.895 284.738 12.105 283.898 12.105C282.918 12.105 282.118 11.87 281.498 11.4C280.878 10.93 280.513 10.275 280.403 9.435H281.723C281.773 9.935 281.988 10.34 282.368 10.65C282.758 10.96 283.268 11.115 283.898 11.115C284.368 11.115 284.733 10.995 284.993 10.755C285.263 10.515 285.398 10.2 285.398 9.81C285.398 9.49 285.303 9.235 285.113 9.045C284.923 8.855 284.688 8.71 284.408 8.61C284.128 8.51 283.743 8.405 283.253 8.295C282.643 8.155 282.153 8.015 281.783 7.875C281.423 7.735 281.113 7.515 280.853 7.215C280.603 6.905 280.478 6.49 280.478 5.97C280.478 5.28 280.733 4.725 281.243 4.305C281.753 3.875 282.448 3.66 283.328 3.66ZM293.568 5.43C293.838 4.86 294.233 4.42 294.753 4.11C295.273 3.79 295.893 3.63 296.613 3.63V5.115H296.193C295.423 5.115 294.793 5.315 294.303 5.715C293.813 6.105 293.568 6.755 293.568 7.665V12H292.203V3.765H293.568V5.43ZM305.535 7.425C305.535 7.715 305.515 7.965 305.475 8.175H298.89C298.92 9.115 299.185 9.82 299.685 10.29C300.195 10.76 300.815 10.995 301.545 10.995C302.205 10.995 302.755 10.83 303.195 10.5C303.645 10.16 303.92 9.71 304.02 9.15H305.475C305.375 9.72 305.15 10.23 304.8 10.68C304.46 11.13 304.015 11.48 303.465 11.73C302.915 11.98 302.295 12.105 301.605 12.105C300.815 12.105 300.115 11.935 299.505 11.595C298.895 11.255 298.415 10.77 298.065 10.14C297.725 9.5 297.555 8.75 297.555 7.89C297.555 7.03 297.725 6.28 298.065 5.64C298.415 5 298.895 4.51 299.505 4.17C300.115 3.83 300.815 3.66 301.605 3.66C302.405 3.66 303.1 3.83 303.69 4.17C304.29 4.51 304.745 4.965 305.055 5.535C305.375 6.105 305.535 6.735 305.535 7.425ZM304.155 7.515C304.185 6.905 304.085 6.395 303.855 5.985C303.625 5.575 303.31 5.27 302.91 5.07C302.51 4.87 302.075 4.77 301.605 4.77C300.855 4.77 300.225 5.005 299.715 5.475C299.205 5.935 298.93 6.615 298.89 7.515H304.155ZM309.901 3.66C310.831 3.66 311.576 3.905 312.136 4.395C312.706 4.875 313.051 5.525 313.171 6.345H311.866C311.806 5.855 311.601 5.455 311.251 5.145C310.911 4.825 310.451 4.665 309.871 4.665C309.381 4.665 308.996 4.785 308.716 5.025C308.446 5.255 308.311 5.57 308.311 5.97C308.311 6.27 308.401 6.515 308.581 6.705C308.771 6.885 309.001 7.025 309.271 7.125C309.551 7.215 309.931 7.315 310.411 7.425C311.021 7.565 311.511 7.71 311.881 7.86C312.261 8 312.581 8.23 312.841 8.55C313.111 8.87 313.246 9.3 313.246 9.84C313.246 10.51 312.991 11.055 312.481 11.475C311.981 11.895 311.311 12.105 310.471 12.105C309.491 12.105 308.691 11.87 308.071 11.4C307.451 10.93 307.086 10.275 306.976 9.435H308.296C308.346 9.935 308.561 10.34 308.941 10.65C309.331 10.96 309.841 11.115 310.471 11.115C310.941 11.115 311.306 10.995 311.566 10.755C311.836 10.515 311.971 10.2 311.971 9.81C311.971 9.49 311.876 9.235 311.686 9.045C311.496 8.855 311.261 8.71 310.981 8.61C310.701 8.51 310.316 8.405 309.826 8.295C309.216 8.155 308.726 8.015 308.356 7.875C307.996 7.735 307.686 7.515 307.426 7.215C307.176 6.905 307.051 6.49 307.051 5.97C307.051 5.28 307.306 4.725 307.816 4.305C308.326 3.875 309.021 3.66 309.901 3.66ZM322.645 7.425C322.645 7.715 322.625 7.965 322.585 8.175H316C316.03 9.115 316.295 9.82 316.795 10.29C317.305 10.76 317.925 10.995 318.655 10.995C319.315 10.995 319.865 10.83 320.305 10.5C320.755 10.16 321.03 9.71 321.13 9.15H322.585C322.485 9.72 322.26 10.23 321.91 10.68C321.57 11.13 321.125 11.48 320.575 11.73C320.025 11.98 319.405 12.105 318.715 12.105C317.925 12.105 317.225 11.935 316.615 11.595C316.005 11.255 315.525 10.77 315.175 10.14C314.835 9.5 314.665 8.75 314.665 7.89C314.665 7.03 314.835 6.28 315.175 5.64C315.525 5 316.005 4.51 316.615 4.17C317.225 3.83 317.925 3.66 318.715 3.66C319.515 3.66 320.21 3.83 320.8 4.17C321.4 4.51 321.855 4.965 322.165 5.535C322.485 6.105 322.645 6.735 322.645 7.425ZM321.265 7.515C321.295 6.905 321.195 6.395 320.965 5.985C320.735 5.575 320.42 5.27 320.02 5.07C319.62 4.87 319.185 4.77 318.715 4.77C317.965 4.77 317.335 5.005 316.825 5.475C316.315 5.935 316.04 6.615 316 7.515H321.265ZM325.795 5.43C326.065 4.86 326.46 4.42 326.98 4.11C327.5 3.79 328.12 3.63 328.84 3.63V5.115H328.42C327.65 5.115 327.02 5.315 326.53 5.715C326.04 6.105 325.795 6.755 325.795 7.665V12H324.43V3.765H325.795V5.43ZM333.382 10.545L335.932 3.765H337.402L334.177 12H332.557L329.332 3.765H330.802L333.382 10.545ZM346.316 7.425C346.316 7.715 346.296 7.965 346.256 8.175H339.671C339.701 9.115 339.966 9.82 340.466 10.29C340.976 10.76 341.596 10.995 342.326 10.995C342.986 10.995 343.536 10.83 343.976 10.5C344.426 10.16 344.701 9.71 344.801 9.15H346.256C346.156 9.72 345.931 10.23 345.581 10.68C345.241 11.13 344.796 11.48 344.246 11.73C343.696 11.98 343.076 12.105 342.386 12.105C341.596 12.105 340.896 11.935 340.286 11.595C339.676 11.255 339.196 10.77 338.846 10.14C338.506 9.5 338.336 8.75 338.336 7.89C338.336 7.03 338.506 6.28 338.846 5.64C339.196 5 339.676 4.51 340.286 4.17C340.896 3.83 341.596 3.66 342.386 3.66C343.186 3.66 343.881 3.83 344.471 4.17C345.071 4.51 345.526 4.965 345.836 5.535C346.156 6.105 346.316 6.735 346.316 7.425ZM344.936 7.515C344.966 6.905 344.866 6.395 344.636 5.985C344.406 5.575 344.091 5.27 343.691 5.07C343.291 4.87 342.856 4.77 342.386 4.77C341.636 4.77 341.006 5.005 340.496 5.475C339.986 5.935 339.711 6.615 339.671 7.515H344.936ZM351.477 3.66C352.277 3.66 352.952 3.86 353.502 4.26C354.062 4.66 354.452 5.195 354.672 5.865V0.9H356.037V12H354.672V9.9C354.452 10.57 354.062 11.105 353.502 11.505C352.952 11.905 352.277 12.105 351.477 12.105C350.747 12.105 350.097 11.935 349.527 11.595C348.957 11.255 348.507 10.77 348.177 10.14C347.857 9.5 347.697 8.75 347.697 7.89C347.697 7.03 347.857 6.28 348.177 5.64C348.507 5 348.957 4.51 349.527 4.17C350.097 3.83 350.747 3.66 351.477 3.66ZM351.867 4.875C351.027 4.875 350.352 5.145 349.842 5.685C349.342 6.215 349.092 6.95 349.092 7.89C349.092 8.83 349.342 9.57 349.842 10.11C350.352 10.64 351.027 10.905 351.867 10.905C352.407 10.905 352.887 10.78 353.307 10.53C353.737 10.28 354.072 9.93 354.312 9.48C354.552 9.02 354.672 8.49 354.672 7.89C354.672 7.29 354.552 6.76 354.312 6.3C354.072 5.84 353.737 5.49 353.307 5.25C352.887 5 352.407 4.875 351.867 4.875ZM359.214 10.395V12H357.564V10.395H359.214Z" fill="#333333"/>
</svg>
