<svg width="26" height="36" viewBox="0 0 26 36" fill="none" xmlns="http://www.w3.org/2000/svg">
<path d="M1.88866 2.51978C1.88866 2.51978 -1.75113 13.7372 5.70179 23.7826C13.1547 33.828 20.6076 35 22.3409 35C24.0741 35 25.2874 28.303 24.9407 27.9682C24.5941 27.6334 18.1811 24.1175 17.4878 24.1175C16.7945 24.1175 12.9814 25.9591 12.2881 25.7917C11.5948 25.6243 8.64829 22.4432 7.2617 19.9319C5.87511 17.4205 5.35514 14.2394 5.70179 14.072C6.04843 13.9046 9.86155 11.3932 10.0349 10.7235C10.2082 10.0538 11.0748 2.6872 10.5548 2.51978C10.0349 2.35235 4.14187 0.845538 3.27525 1.01296C2.40864 1.18039 1.88866 2.51978 1.88866 2.51978Z" stroke="black" stroke-width="1.5" stroke-miterlimit="10"/>
</svg>
